<svg width="99" height="21" viewBox="0 0 99 21" fill="none" xmlns="http://www.w3.org/2000/svg">
<path d="M0.728 0.559999H4.928L7.328 12.824L9.872 0.559999H13.928L14.288 20H11.408L11.096 6.8L8.6 20H6.152L3.584 6.728L3.296 20H0.392L0.728 0.559999ZM22.5995 20.264C20.5355 20.264 19.0635 19.728 18.1835 18.656C17.3035 17.568 16.8635 15.976 16.8635 13.88V6.632C16.8635 4.536 17.3035 2.96 18.1835 1.904C19.0635 0.847999 20.5355 0.319999 22.5995 0.319999C24.6475 0.319999 26.1115 0.855999 26.9915 1.928C27.8875 2.984 28.3355 4.552 28.3355 6.632V13.904C28.3355 15.984 27.8875 17.568 26.9915 18.656C26.1115 19.728 24.6475 20.264 22.5995 20.264ZM22.5995 17.432C23.2715 17.432 23.7195 17.208 23.9435 16.76C24.1835 16.296 24.3035 15.664 24.3035 14.864V5.672C24.3035 4.872 24.1835 4.256 23.9435 3.824C23.7195 3.376 23.2715 3.152 22.5995 3.152C21.9275 3.152 21.4715 3.376 21.2315 3.824C21.0075 4.256 20.8955 4.872 20.8955 5.672V14.864C20.8955 15.68 21.0075 16.312 21.2315 16.76C21.4555 17.208 21.9115 17.432 22.5995 17.432ZM36.4516 20.264C35.0116 20.264 33.8836 20.024 33.0676 19.544C32.2516 19.048 31.6756 18.336 31.3396 17.408C31.0036 16.48 30.8356 15.296 30.8356 13.856V0.559999H34.7236V14.408C34.7236 15.336 34.8356 16.064 35.0596 16.592C35.2836 17.12 35.7476 17.384 36.4516 17.384C37.1556 17.384 37.6196 17.12 37.8436 16.592C38.0676 16.064 38.1796 15.336 38.1796 14.408V0.559999H42.0916V13.856C42.0916 15.296 41.9236 16.48 41.5876 17.408C41.2516 18.336 40.6676 19.048 39.8356 19.544C39.0196 20.024 37.8916 20.264 36.4516 20.264ZM44.8546 0.559999H47.6146L51.9346 10.664V0.559999H55.2226V20H52.5586L48.2386 9.248V20H44.8546V0.559999ZM59.9677 3.488H56.9677V0.559999H66.9037V3.488H63.9517V20H59.9677V3.488ZM70.772 0.559999H75.164L78.908 20H75.26L74.54 15.728H71.468L70.724 20H67.004L70.772 0.559999ZM74.156 13.28L72.98 5.456L71.828 13.28H74.156ZM80.9261 0.559999H84.8621V20H80.9261V0.559999ZM87.8156 0.559999H90.5756L94.8956 10.664V0.559999H98.1836V20H95.5196L91.1996 9.248V20H87.8156V0.559999Z" fill="#FCFCFC"/>
</svg>
